Coordinates
version=1
nRows=9
nColumns=36
inDegrees=yes

Units are S.I. units (second, meters, Newtons, ...)
If the header above contains a line with 'inDegrees', this indicates whether rotational values are in degrees (yes) or radians (no).

endheader
time	pelvis_tilt	pelvis_list	pelvis_rotation	pelvis_tx	pelvis_ty	pelvis_tz	hip_flexion_r	hip_adduction_r	hip_rotation_r	knee_angle_r	knee_angle_r_beta	ankle_angle_r	subtalar_angle_r	mtp_angle_r	hip_flexion_l	hip_adduction_l	hip_rotation_l	knee_angle_l	knee_angle_l_beta	ankle_angle_l	subtalar_angle_l	mtp_angle_l	lumbar_extension	lumbar_bending	lumbar_rotation	arm_flex_r	arm_add_r	arm_rot_r	elbow_flex_r	pro_sup_r	arm_flex_l	arm_add_l	arm_rot_l	elbow_flex_l	pro_sup_l
      4.26666670	     26.99694344	      3.26038374	      6.32546020	      1.07469716	      0.99405128	     -0.12855446	     10.71823025	     -1.33486202	      4.85372821	     20.39496308	      0.35595926	      9.33916247	     -0.23063533	     -7.49999987	    -19.94588714	      7.70162810	     -2.94329527	     26.44888158	      0.46162007	     24.03908023	    -16.21704852	     -7.49999987	    -40.81988863	      1.53396087	      7.74071028	     53.53686636	      0.98659828	     51.55568804	    120.33028331	     89.21872026	     52.78634616	      0.56427866	     58.26331088	    119.95120137	     96.97617674
      4.28333330	     27.32269261	      2.78390995	      6.32787656	      1.07476415	      0.99892536	     -0.12924428	     10.55045473	     -0.63524892	      4.84066884	     20.92868396	      0.36527444	      9.10832043	     -0.59622788	     -7.49999987	    -21.67138142	      7.10469030	     -3.63592767	     23.11338452	      0.40340466	     22.08525041	    -15.65948920	     -7.49999987	    -40.86847139	      1.97748489	      7.89114968	     53.38275136	      0.42141007	     52.18784052	    120.80861378	     87.49573944	     52.82907014	      0.74326222	     58.17289174	    119.22941930	     95.22299429
      4.30000000	     27.49208192	      2.12618912	      6.39566154	      1.07487253	      0.99906422	     -0.12966328	     10.85712475	      0.28290896	      4.86518347	     21.95927198	      0.38326160	      9.14318207	     -1.28717208	     -7.49999987	    -22.81225185	      6.29084217	     -4.51602562	     20.59913622	      0.35952275	     20.53610523	    -14.95841729	     -7.49999987	    -40.86837860	      2.58428582	      8.23771261	     53.54847324	     -0.05731343	     52.80018321	    121.35065381	     86.63837854	     53.13478848	      1.28255416	     59.00890545	    119.04924257	     94.14560825
      4.31666670	     27.36204892	      1.51828436	      6.26002112	      1.07489604	      1.00394709	     -0.13020133	     11.71295888	      1.09728256	      4.91091310	     23.91571129	      0.41740790	      9.82938300	     -2.03906798	     -7.49999987	    -23.42498896	      5.67399062	     -5.36502136	     18.43563471	      0.32176253	     19.11778445	    -14.51743667	     -7.49999987	    -40.69071566	      3.01617733	      8.34475926	     53.71477340	      0.01339817	     53.46670504	    121.84098521	     86.89974204	     53.33813524	      1.69439703	     59.72002087	    119.37356055	     94.37347436
      4.33333330	     27.09182730	      1.04034778	      6.16145369	      1.06987299	      1.00584035	     -0.13319852	     12.92603971	      1.63460024	      4.89231738	     26.26589721	      0.45842639	     10.43541914	     -2.93301622	     -7.49999987	    -23.68227466	      5.26780551	     -6.00958874	     16.67022367	      0.29095029	     17.96988708	    -14.15433523	     -7.49999987	    -40.57655370	      3.34743337	      8.45033118	     54.15632676	     -0.37221225	     53.67880962	    122.30791721	     87.13324528	     53.58669138	      2.12836852	     60.03043549	    119.69175826	     94.58113078
      4.35000000	     26.37577161	      0.62623706	      6.05169165	      1.07073702	      1.00682180	     -0.13337629	     14.57172616	      2.07847557	      4.86366156	     28.69412120	      0.50080689	     11.47918418	     -3.62839353	     -7.49999987	    -23.41272178	      4.98625183	     -6.55309715	     15.17231505	      0.26480685	     16.86874906	    -13.97099818	     -7.49999987	    -39.89506564	      3.61542733	      8.20221219	     54.34093802	     -0.55628157	     53.79960360	    122.61948072	     86.04863717	     53.79657520	      2.30868993	     60.42346431	    120.07359519	     93.29602135
      4.36666670	     25.94516540	     -0.20346723	      5.95429372	      1.07753722	      1.00679206	     -0.13138497	     15.59834837	      3.04306230	      4.72594525	     30.69761338	      0.53577443	     12.68813866	     -4.23420339	     -7.49999987	    -23.93397815	      4.26162742	     -7.32716809	     13.05321085	      0.22782151	     15.84135418	    -13.42236777	     -7.49999987	    -39.24071198	      4.26876363	      8.32152403	     54.50454151	     -0.35868734	     53.83507857	    123.40179408	     86.41460625	     53.84651225	      2.22045670	     60.51833347	    120.69279612	     93.66345602
      4.38333330	     25.21077005	     -0.99524333	      5.82790324	      1.07859995	      1.00727938	     -0.13183853	     16.89159150	      3.97888255	      4.61407556	     32.50243242	      0.56727446	     13.96845530	     -4.55937576	     -7.49999987	    -24.44776630	      3.66286423	     -8.28104057	     10.40691818	      0.18163499	     14.88881561	    -11.96854514	     -7.49999987	    -38.09573201	      4.88769153	      8.34349015	     54.41791271	     -0.08751972	     53.75047149	    123.67640982	     87.27598968	     53.37306474	      1.90760087	     60.48431350	    121.65382895	     94.50761418
      4.40000000	     24.63672516	     -1.81121965	      5.82363048	      1.07451163	      1.00531708	     -0.13517238	     18.04062644	      4.83107435	      4.32443605	     34.17601658	      0.59648401	     15.09194659	     -4.72695685	     -7.49999987	    -25.05522677	      3.07563456	     -8.82401109	      7.79731761	      0.13608887	     13.49137613	    -11.08703110	     -7.49999987	    -37.35235176	      5.72099361	      8.45886500	     54.70028506	     -0.56296579	     53.39500750	    123.46275357	     87.50766853	     53.47153803	      2.09960132	     61.14123049	    122.86612107	     94.78627364
